<svg width="35" height="35" viewBox="0 0 35 35" fill="none" xmlns="http://www.w3.org/2000/svg">
<path fill-rule="evenodd" clip-rule="evenodd" d="M25.1562 22.2729C25.1562 25.3543 22.0792 28.4375 17.5 28.4375C12.9208 28.4375 9.84375 25.3543 9.84375 22.2729C9.84375 19.0767 11.9225 15.0964 14.3659 11.6313C15.4702 10.0651 16.5786 8.70088 17.4453 7.69309C18.3285 8.77963 19.4745 10.2587 20.6164 11.9279C21.807 13.6683 22.965 15.5748 23.8182 17.4303C24.6871 19.3197 25.1562 20.9788 25.1562 22.2729ZM7.65625 22.2729C7.65625 16.3264 13.2685 9.15575 16.0177 5.99991C16.9095 4.97624 17.5 4.375 17.5 4.375C17.5 4.375 18.0657 5.00037 18.9259 6.04794C21.654 9.37015 27.3438 16.9386 27.3438 22.2729C27.3438 26.8856 22.9366 30.625 17.5 30.625C12.0634 30.625 7.65625 26.8856 7.65625 22.2729ZM12.5763 18.5938H14.9296C14.4868 19.6043 14.2188 20.5627 14.2188 21.3779C14.2188 22.6298 15.4433 24.0625 17.5 24.0625V26.25C14.4797 26.25 12.0312 24.0687 12.0312 21.3779C12.0312 20.4801 12.2402 19.5343 12.5763 18.5938Z" fill="black"/>
</svg>
