<svg width="35" height="35" viewBox="0 0 35 35" fill="none" xmlns="http://www.w3.org/2000/svg">
<path fill-rule="evenodd" clip-rule="evenodd" d="M15.3065 17.5013L9.7136 20.7725L5.28032 18.7375L4.37026 20.7394L7.39572 22.1282L5.73155 23.1016L6.81468 25.0021L8.47857 24.0289L8.15311 27.3771L10.3195 27.5796L10.7964 22.6732L16.3919 19.4005V25.9797L12.4326 28.8533L13.7176 30.6236L16.3919 28.6826V30.625H18.5794V28.6825L21.2539 30.6236L22.5389 28.8533L18.5794 25.9796V19.4156L24.1874 22.6957L24.6644 27.6026L26.8308 27.4001L26.5053 24.0514L28.1695 25.0248L29.2527 23.1243L27.5887 22.151L30.6136 20.7624L29.7036 18.7605L25.2708 20.7953L19.639 17.5013L25.2534 14.2175L29.7155 16.2657L30.6256 14.2638L27.5713 12.8618L29.2549 11.8771L28.1717 9.97656L26.5204 10.9424L26.8427 7.62615L24.6763 7.4236L24.2025 12.2981L18.5794 15.587V9.04263L22.5643 6.15045L21.2794 4.3801L18.5794 6.33969V4.375H16.3919V6.30269L13.743 4.3801L12.4581 6.15045L16.3919 9.00562V15.6022L10.8136 12.3395L10.3336 7.40085L8.16717 7.6034L8.49576 10.9838L6.81249 9.99925L5.72936 11.8998L7.38068 12.8656L4.38432 14.241L5.29437 16.243L9.69856 14.2213L15.3065 17.5013Z" fill="black"/>
</svg>
