<svg width="35" height="35" viewBox="0 0 35 35" fill="none" xmlns="http://www.w3.org/2000/svg">
<path fill-rule="evenodd" clip-rule="evenodd" d="M16.4062 5.46875V2.1875H18.5938V5.46875H16.4062ZM22.5685 6.53385L24.2091 3.69221L26.1035 4.78596L24.4629 7.6276L22.5685 6.53385ZM17.5 25.1562C21.7284 25.1562 25.1562 21.7284 25.1562 17.5C25.1562 13.2716 21.7284 9.84375 17.5 9.84375C13.2716 9.84375 9.84375 13.2716 9.84375 17.5C9.84375 21.7284 13.2716 25.1562 17.5 25.1562ZM17.5 27.3438C22.9366 27.3438 27.3438 22.9366 27.3438 17.5C27.3438 12.0634 22.9366 7.65625 17.5 7.65625C12.0634 7.65625 7.65625 12.0634 7.65625 17.5C7.65625 22.9366 12.0634 27.3438 17.5 27.3438ZM29.5312 16.4062H32.8125V18.5938H29.5312V16.4062ZM30.2141 8.89653L27.3725 10.5372L28.4662 12.4316L31.3079 10.791L30.2141 8.89653ZM8.89653 4.78596L10.5372 7.6276L12.4316 6.53385L10.791 3.69221L8.89653 4.78596ZM6.53379 12.4316L3.69214 10.791L4.78589 8.89653L7.62754 10.5372L6.53379 12.4316ZM16.4062 29.5312V32.8125H18.5938V29.5312H16.4062ZM5.46875 16.4062H2.1875V18.5938H5.46875V16.4062ZM3.69208 24.209L6.53373 22.5684L7.62748 24.4628L4.78583 26.1035L3.69208 24.209ZM10.5372 27.3726L8.8966 30.2142L10.791 31.308L12.4317 28.4663L10.5372 27.3726ZM24.209 31.308L22.5684 28.4663L24.4628 27.3726L26.1035 30.2142L24.209 31.308ZM27.3725 24.4628L30.2142 26.1035L31.3079 24.209L28.4663 22.5684L27.3725 24.4628Z" fill="black"/>
</svg>
