<svg width="35" height="35" viewBox="0 0 35 35" fill="none" xmlns="http://www.w3.org/2000/svg">
<path fill-rule="evenodd" clip-rule="evenodd" d="M15.3126 12.0251L15.3127 12.0187L9.12121 12.0186L15.0602 9.87255L15.0596 9.87078C15.1733 9.8421 15.291 9.8319 15.4082 9.84064C15.4236 9.84179 15.439 9.84327 15.4545 9.84509L15.4547 9.84511C15.6155 9.86406 15.7702 9.9185 15.9074 10.0045L15.9074 10.0045C16.0447 10.0905 16.1611 10.206 16.2483 10.3425L16.2484 10.3427C16.3356 10.4792 16.3913 10.6334 16.4117 10.7941L16.4117 10.7944C16.432 10.9552 16.4163 11.1185 16.3658 11.2724L16.3657 11.2726C16.3152 11.4266 16.2311 11.5674 16.1194 11.6849L16.1193 11.685C16.0077 11.8024 15.8714 11.8936 15.7203 11.9519L15.72 11.952C15.7058 11.9575 15.6915 11.9627 15.6771 11.9676C15.5597 12.0073 15.4365 12.0267 15.3126 12.0251ZM4.375 11.4074V14.2062L15.2901 14.2063C15.7047 14.211 16.117 14.1368 16.505 13.9872L16.5053 13.9871C16.8006 13.8731 17.077 13.7172 17.3263 13.5249C17.459 13.4226 17.584 13.3098 17.7002 13.1876L17.7003 13.1875C18.0344 12.8358 18.2863 12.4141 18.4376 11.9531L18.4377 11.953C18.589 11.4919 18.636 11.003 18.5753 10.5216L18.5752 10.5213C18.5145 10.0399 18.3476 9.57794 18.0865 9.16894L18.0864 9.16872C17.8252 8.75967 17.4765 8.41379 17.0653 8.15608L17.0653 8.15607C16.9224 8.06652 16.7733 7.98839 16.6192 7.92219C16.3299 7.79788 16.0234 7.7156 15.709 7.67864L15.7088 7.67861C15.2403 7.62357 14.7657 7.67044 14.3173 7.81581L14.317 7.81488L14.2834 7.82701L14.2795 7.82834L14.279 7.8285L14.279 7.82859L4.375 11.4074ZM4.375 20.7791V23.0262L18.8189 28.1648L18.8187 28.1652C19.3414 28.3738 19.9037 28.4644 20.4655 28.4307C20.6815 28.4178 20.8953 28.3866 21.1049 28.3377C21.4403 28.2595 21.7646 28.1362 22.0687 27.9703C22.5628 27.7007 22.9913 27.3255 23.3238 26.8713C23.6563 26.4171 23.8845 25.8951 23.9922 25.3426C24.0999 24.79 24.0845 24.2205 23.9469 23.6747C23.8094 23.1288 23.5532 22.62 23.1966 22.1845C22.9771 21.9164 22.7229 21.6802 22.4413 21.4817C22.2655 21.3577 22.0791 21.2484 21.8838 21.1552C21.3766 20.9132 20.8224 20.786 20.2605 20.7824V20.7792L4.375 20.7791ZM20.2457 22.9668L10.7353 22.9668L19.6702 26.1455L19.6694 26.1478C19.8818 26.2261 20.1082 26.2597 20.3345 26.2461C20.5751 26.2317 20.8095 26.1644 21.0211 26.0489C21.2326 25.9335 21.4161 25.7728 21.5585 25.5783C21.7009 25.3838 21.7986 25.1603 21.8447 24.9237C21.8909 24.6871 21.8843 24.4432 21.8254 24.2095C21.7665 23.9757 21.6568 23.7578 21.5041 23.5713C21.3513 23.3848 21.1594 23.2343 20.9419 23.1306C20.7247 23.0269 20.4873 22.9724 20.2466 22.9709L20.2456 22.9709L20.2456 22.9705L20.2457 22.9668ZM25.176 12.3026L25.175 12.3032L24.0993 10.3985L24.098 10.3963L24.1002 10.395C24.6826 10.0663 25.3327 9.87555 26.0004 9.83738C26.0972 9.83184 26.1941 9.82954 26.2907 9.83044C26.8614 9.83575 27.4266 9.95274 27.954 10.1758C28.5707 10.4367 29.1193 10.8357 29.5576 11.3421C29.9959 11.8485 30.3121 12.4487 30.482 13.0966C30.6518 13.7445 30.6707 14.4228 30.5372 15.0791C30.4036 15.7355 30.1213 16.3524 29.7119 16.8824C29.3618 17.3356 28.9268 17.7149 28.4322 17.9996C28.3483 18.0479 28.2628 18.0934 28.1756 18.1361C27.5744 18.4309 26.9135 18.5838 26.2439 18.5828V18.5825H4.375V16.395H26.2469L26.2469 16.3926C26.5814 16.3931 26.9116 16.3168 27.2119 16.1695C27.5123 16.0222 27.7748 15.808 27.9793 15.5432C28.1839 15.2785 28.3249 14.9703 28.3916 14.6424C28.4583 14.3145 28.4488 13.9757 28.364 13.6521C28.2792 13.3284 28.1212 13.0286 27.9023 12.7756C27.6833 12.5227 27.4093 12.3234 27.1012 12.1931C26.7931 12.0627 26.4592 12.0049 26.1253 12.024C25.7917 12.0431 25.467 12.1384 25.176 12.3026Z" fill="black"/>
</svg>
